<svg width="370" height="450" viewBox="0 0 370 450" fill="none" xmlns="http://www.w3.org/2000/svg">
<g opacity="0.15" filter="url(#filter0_n_1_2246)">
<path d="M185.3 368.6C286.534 368.6 368.6 286.534 368.6 185.3C368.6 84.0662 286.534 2 185.3 2C84.0662 2 2 84.0662 2 185.3C2 286.534 84.0662 368.6 185.3 368.6Z" fill="white"/>
</g>
<g opacity="0.3" filter="url(#filter1_n_1_2246)">
<path d="M185.5 327C263.648 327 327 263.648 327 185.5C327 107.352 263.648 44 185.5 44C107.352 44 44 107.352 44 185.5C44 263.648 107.352 327 185.5 327Z" fill="white"/>
</g>
<g opacity="0.4" filter="url(#filter2_n_1_2246)">
<path d="M184.885 285.77C240.603 285.77 285.77 240.603 285.77 184.885C285.77 129.168 240.603 84.0002 184.885 84.0002C129.168 84.0002 84.0002 129.168 84.0002 184.885C84.0002 240.603 129.168 285.77 184.885 285.77Z" fill="white"/>
</g>
<path d="M256.171 181.82C252.947 181.82 250.342 179.215 250.342 175.991V169.259C250.342 166.035 252.947 163.43 256.171 163.43C259.395 163.43 262 166.035 262 169.259V175.991C262 179.215 259.395 181.82 256.171 181.82Z" fill="#62B56B"/>
<path d="M114.829 207.898C111.605 207.898 109 205.293 109 202.069V195.337C109 192.113 111.605 189.508 114.829 189.508C118.053 189.508 120.658 192.113 120.658 195.337V202.069C120.658 205.293 118.053 207.898 114.829 207.898Z" fill="#62B56B"/>
<path d="M161.927 229.205C158.703 229.205 156.098 226.6 156.098 223.376V174.009C156.098 170.785 158.703 168.18 161.927 168.18C165.151 168.18 167.756 170.785 167.756 174.009V223.376C167.756 226.6 165.151 229.205 161.927 229.205Z" fill="#40AD5B"/>
<path d="M185.503 237.325C182.279 237.325 179.674 234.72 179.674 231.496V139.829C179.674 136.605 182.279 134 185.503 134C188.727 134 191.332 136.605 191.332 139.829V231.496C191.332 234.72 188.727 237.325 185.503 237.325Z" fill="#23A957"/>
<path d="M138.376 217.568C135.152 217.568 132.547 214.963 132.547 211.739V185.689C132.547 182.464 135.152 179.859 138.376 179.859C141.6 179.859 144.205 182.464 144.205 185.689V211.739C144.205 214.963 141.6 217.568 138.376 217.568Z" fill="#47AF5E"/>
<path d="M209.05 203.152C205.826 203.152 203.221 200.547 203.221 197.323V147.981C203.221 144.757 205.826 142.152 209.05 142.152C212.274 142.152 214.879 144.757 214.879 147.981V197.349C214.879 200.573 212.274 203.178 209.05 203.178V203.152Z" fill="#40AD5B"/>
<path d="M232.6 191.49C229.376 191.49 226.771 188.885 226.771 185.661V159.61C226.771 156.386 229.376 153.781 232.6 153.781C235.825 153.781 238.43 156.386 238.43 159.61V185.661C238.43 188.885 235.825 191.49 232.6 191.49Z" fill="#47AF5E"/>
<path d="M299.827 148.921L291.577 161.605C290.857 162.712 291.171 164.193 292.278 164.913L312.158 177.843C313.265 178.563 314.746 178.249 315.466 177.142L323.715 164.458C324.435 163.351 324.122 161.87 323.015 161.15L303.135 148.22C302.028 147.5 300.547 147.814 299.827 148.921Z" fill="#FFE06B"/>
<mask id="mask0_1_2246" style="mask-type:luminance" maskUnits="userSpaceOnUse" x="291" y="147" width="34" height="32">
<path d="M299.827 148.917L291.577 161.601C290.857 162.708 291.171 164.189 292.278 164.909L312.158 177.839C313.265 178.559 314.746 178.245 315.466 177.138L323.715 164.454C324.435 163.347 324.122 161.866 323.015 161.146L303.135 148.216C302.028 147.496 300.547 147.81 299.827 148.917Z" fill="white"/>
</mask>
<g mask="url(#mask0_1_2246)">
<path d="M314.179 179.172L290.283 163.629L308.448 161.848L314.179 179.172Z" fill="#FFCE4B"/>
<path d="M325.03 162.484L301.143 146.941L306.197 162.221C306.593 163.416 307.764 164.183 309.017 164.059L325.03 162.484Z" fill="#FBB03B"/>
</g>
<path d="M278.108 258.407L278.097 273.537C278.096 274.858 279.166 275.929 280.487 275.93L304.201 275.947C305.522 275.948 306.593 274.878 306.594 273.557L306.604 258.427C306.605 257.106 305.536 256.035 304.215 256.034L280.501 256.017C279.18 256.016 278.109 257.086 278.108 258.407Z" fill="#FFE06B"/>
<mask id="mask1_1_2246" style="mask-type:luminance" maskUnits="userSpaceOnUse" x="278" y="256" width="29" height="20">
<path d="M278.105 258.403L278.095 273.534C278.094 274.855 279.164 275.926 280.484 275.927L304.199 275.944C305.519 275.945 306.591 274.875 306.592 273.554L306.602 258.423C306.603 257.103 305.533 256.032 304.213 256.031L280.498 256.014C279.178 256.013 278.106 257.083 278.105 258.403Z" fill="white"/>
</mask>
<g mask="url(#mask1_1_2246)">
<path d="M306.62 275.961L278.114 275.939L292.379 264.552L306.62 275.961Z" fill="#FFCE4B"/>
<path d="M306.632 256.055L278.133 256.03L290.694 266.091C291.677 266.878 293.076 266.884 294.06 266.097L306.632 256.055Z" fill="#FBB03B"/>
</g>
<path d="M71.4815 119.361L51.7867 132.57C50.6899 133.306 50.3971 134.791 51.1327 135.888L59.5609 148.454C60.2965 149.551 61.7819 149.844 62.8787 149.108L82.5735 135.899C83.6703 135.163 83.9631 133.678 83.2274 132.581L74.7993 120.015C74.0637 118.918 72.5782 118.625 71.4815 119.361Z" fill="#FFE06B"/>
<mask id="mask2_1_2246" style="mask-type:luminance" maskUnits="userSpaceOnUse" x="50" y="118" width="34" height="32">
<path d="M71.4815 119.361L51.7867 132.57C50.6899 133.306 50.3971 134.791 51.1327 135.888L59.5609 148.454C60.2965 149.551 61.7819 149.844 62.8787 149.108L82.5735 135.899C83.6703 135.163 83.9631 133.678 83.2274 132.581L74.7993 120.015C74.0637 118.918 72.5782 118.625 71.4815 119.361Z" fill="white"/>
</mask>
<g mask="url(#mask2_1_2246)">
<path d="M84.556 134.573L60.8828 150.446L66.3661 133.039L84.556 134.573Z" fill="#FFCE4B"/>
<path d="M73.4661 118.039L49.793 133.912L65.8307 135.264C67.084 135.371 68.2467 134.588 68.626 133.392L73.4661 118.039Z" fill="#FBB03B"/>
</g>
<path d="M81.7589 84.3006L76.1602 74.6862L102.282 63.0352L81.7589 84.3006Z" fill="#D6D6D8"/>
<path d="M76.1604 74.6862L102.283 63.0352L70.5781 73.573L76.1604 74.6862Z" fill="white"/>
<path d="M82.1803 77.3578L81.7598 84.3006L102.283 63.0352L82.1803 77.3578Z" fill="#BEBEBF"/>
<path d="M102.282 63.0352L90.5655 78.809L82.1797 77.3578L102.282 63.0352Z" fill="white"/>
<path d="M298.511 114.04L299.245 102.941L270.666 104.145L298.511 114.04Z" fill="#D6D6D8"/>
<path d="M299.245 102.941L270.666 104.144L303.747 99.4609L299.245 102.941Z" fill="white"/>
<path d="M295.04 108.02L298.511 114.039L270.666 104.145L295.04 108.02Z" fill="#BEBEBF"/>
<path d="M270.666 104.145L288.18 113.05L295.04 108.02L270.666 104.145Z" fill="white"/>
<path d="M69.4238 224.327L71.6254 210.961L106.471 226.479L69.4238 224.327Z" fill="#D6D6D8"/>
<path d="M65.9199 215.234L69.4243 224.329L106.472 226.481L65.9199 215.234Z" fill="#D6D6D8"/>
<path d="M65.9196 215.234L106.472 226.481L57.2617 220.858L65.9196 215.234Z" fill="white"/>
<path d="M71.625 210.96L106.471 226.478L78.5183 206.812L71.625 210.96Z" fill="white"/>
<path d="M294.95 213.675L290.844 200.861L328.666 198.816L294.95 213.675Z" fill="#D6D6D8"/>
<path d="M287.734 207.219L294.949 213.675L328.666 198.816L287.734 207.219Z" fill="#D6D6D8"/>
<path d="M287.735 207.219L328.667 198.816L282.623 216.107L287.735 207.219Z" fill="white"/>
<path d="M290.844 200.86L328.666 198.815L295.074 194.074L290.844 200.86Z" fill="white"/>
<path d="M145.73 309.719C142.548 309.719 139.967 307.138 139.967 303.955C139.967 300.772 142.548 298.191 145.73 298.191C146.786 298.191 147.767 298.48 148.616 298.975C149.754 295.998 152.632 293.879 156.005 293.879C159.377 293.879 162.172 295.932 163.343 298.826C163.986 298.571 164.687 298.43 165.421 298.43C168.538 298.43 171.061 300.954 171.061 304.07C171.061 307.187 168.538 309.71 165.421 309.71H145.73V309.719Z" fill="white"/>
<path d="M128.734 83.2572C124.463 83.2572 121 79.794 121 75.5228C121 71.2516 124.463 67.7884 128.734 67.7884C130.144 67.7884 131.464 68.176 132.61 68.8356C134.135 64.8447 137.994 62 142.529 62C147.064 62 150.8 64.754 152.375 68.646C153.24 68.3079 154.172 68.11 155.162 68.11C159.342 68.11 162.731 71.4989 162.731 75.6795C162.731 79.86 159.342 83.2489 155.162 83.2489H128.743L128.734 83.2572Z" fill="white"/>
<path d="M265.085 73.67C263.271 73.67 261.795 72.194 261.795 70.38C261.795 68.566 263.271 67.09 265.085 67.09C265.687 67.09 266.248 67.2549 266.734 67.5353C267.385 65.8367 269.026 64.6328 270.948 64.6328C272.869 64.6328 274.468 65.8037 275.136 67.4611C275.499 67.3126 275.903 67.2302 276.324 67.2302C278.105 67.2302 279.548 68.6732 279.548 70.4542C279.548 72.2353 278.105 73.6783 276.324 73.6783H265.093L265.085 73.67Z" fill="white"/>
<path d="M85.743 282.483C86.213 282.936 86.8067 282.821 87.2107 282.4C88.06 281.535 87.1117 279.852 85.9491 278.723C83.1374 275.985 79.0805 276.455 76.3512 279.251C73.3993 282.277 73.3663 286.696 76.3512 289.607C79.3196 292.493 83.6733 292.287 86.5346 289.351C87.8209 288.032 88.6372 286.35 88.8763 284.371L90.6574 284.742C90.4677 286.771 89.47 288.881 87.8374 290.564C84.1928 294.307 78.7672 294.596 75.0649 290.992C71.3379 287.364 71.4286 281.823 75.1061 278.047C78.5363 274.518 83.7805 273.99 87.1942 277.321C88.8763 278.954 90.3193 281.724 88.0682 284.041C87.2025 284.924 86.2295 285.278 85.2895 284.998C85.4131 286.053 85.0421 287.084 84.1516 288.007C82.4695 289.731 79.9298 289.887 77.9674 287.983C75.9637 286.028 76.0956 283.472 77.7447 281.774C78.5033 280.999 79.3691 280.603 80.3091 280.57L79.7319 280.009L81.414 278.286L85.7347 282.491L85.743 282.483ZM82.8075 282.986C81.8263 282.029 80.54 282.169 79.7814 282.953C79.0393 283.711 78.9156 284.989 79.9133 285.954C80.911 286.919 82.1974 286.779 82.9312 286.02C83.6898 285.245 83.7805 283.934 82.7993 282.986H82.8075Z" fill="white"/>
<path d="M303.748 117.824C318.294 125.93 293.582 148.292 242.203 156.529" stroke="white" stroke-linecap="round" stroke-linejoin="round" stroke-dasharray="5 3"/>
<path d="M65.9199 215.233C37.7199 194.882 64.378 170.327 92.1574 173.881" stroke="white" stroke-linecap="round" stroke-linejoin="round" stroke-dasharray="5 3"/>
<path d="M194.594 206.812C201.067 229.917 239.161 225.052 240.415 214.877C240.885 211.042 235.055 209.517 235.888 215.347C237.059 223.568 263.75 236.769 290.853 218.348" stroke="white" stroke-linecap="round" stroke-linejoin="round" stroke-dasharray="5 3"/>
<path d="M76.1614 82.0234C56.1576 94.7299 64.0486 129.254 85.8995 126.137C90.4346 125.494 89.9069 122.691 88.233 121.734C86.386 120.687 83.6237 121.132 84.2339 124.785C84.5637 126.764 92.1579 153.035 134.796 144.294" stroke="white" stroke-linecap="round" stroke-linejoin="round" stroke-dasharray="5 3"/>
<path d="M235.59 76.7783C235.293 76.7783 234.997 76.6546 234.79 76.4155C234.411 75.9703 234.461 75.3106 234.898 74.9231L246.409 64.9624C246.846 64.5831 247.522 64.6325 247.901 65.0696C248.28 65.5148 248.231 66.1745 247.794 66.562L236.283 76.5227C236.085 76.6959 235.838 76.7783 235.59 76.7783Z" fill="white"/>
<path d="M247.102 101.21C246.855 101.21 246.607 101.128 246.409 100.955L234.899 90.9939C234.453 90.6146 234.412 89.9467 234.791 89.5015C235.171 89.0562 235.839 89.0067 236.284 89.3943L247.795 99.355C248.24 99.7343 248.281 100.402 247.902 100.847C247.696 101.087 247.399 101.21 247.102 101.21Z" fill="white"/>
<path d="M250.465 83.5015H236.983C236.398 83.5015 235.928 83.0315 235.928 82.4461C235.928 81.8606 236.398 81.3906 236.983 81.3906H250.465C251.05 81.3906 251.52 81.8606 251.52 82.4461C251.52 83.0315 251.05 83.5015 250.465 83.5015Z" fill="white"/>
<path d="M42.239 213.169C44.9577 213.169 47.1617 210.966 47.1617 208.247C47.1617 205.528 44.9577 203.324 42.239 203.324C39.5203 203.324 37.3164 205.528 37.3164 208.247C37.3164 210.966 39.5203 213.169 42.239 213.169Z" fill="white"/>
<path d="M45.7188 227.857H38.7595C37.366 227.857 36.2363 226.727 36.2363 225.333V219.924C36.2363 216.61 38.9244 213.93 42.2309 213.93C45.5456 213.93 48.2254 216.618 48.2254 219.924V225.333C48.2254 226.727 47.0958 227.857 45.7023 227.857H45.7188Z" fill="white"/>
<path d="M208.075 306.724C210.794 306.724 212.998 304.52 212.998 301.802C212.998 299.083 210.794 296.879 208.075 296.879C205.356 296.879 203.152 299.083 203.152 301.802C203.152 304.52 205.356 306.724 208.075 306.724Z" fill="white"/>
<path d="M211.555 321.411H204.595C203.202 321.411 202.072 320.282 202.072 318.888V313.479C202.072 310.164 204.76 307.484 208.067 307.484C211.382 307.484 214.061 310.172 214.061 313.479V318.888C214.061 320.282 212.932 321.411 211.538 321.411H211.555Z" fill="white"/>
<path d="M331.157 214.83C333.876 214.83 336.08 212.626 336.08 209.907C336.08 207.188 333.876 204.984 331.157 204.984C328.438 204.984 326.234 207.188 326.234 209.907C326.234 212.626 328.438 214.83 331.157 214.83Z" fill="white"/>
<path d="M334.637 229.513H327.677C326.284 229.513 325.154 228.383 325.154 226.99V221.581C325.154 218.266 327.842 215.586 331.149 215.586C334.464 215.586 337.143 218.274 337.143 221.581V226.99C337.143 228.383 336.014 229.513 334.62 229.513H334.637Z" fill="white"/>
<path d="M282.797 190.683C284.6 190.683 286.062 189.221 286.062 187.418C286.062 185.614 284.6 184.152 282.797 184.152C280.993 184.152 279.531 185.614 279.531 187.418C279.531 189.221 280.993 190.683 282.797 190.683Z" stroke="white" stroke-miterlimit="10"/>
<path d="M313.041 112.491C314.844 112.491 316.306 111.03 316.306 109.226C316.306 107.423 314.844 105.961 313.041 105.961C311.237 105.961 309.775 107.423 309.775 109.226C309.775 111.03 311.237 112.491 313.041 112.491Z" stroke="white" stroke-miterlimit="10"/>
<path d="M42.2379 85.7102C44.0413 85.7102 45.5032 84.2483 45.5032 82.4449C45.5032 80.6416 44.0413 79.1797 42.2379 79.1797C40.4346 79.1797 38.9727 80.6416 38.9727 82.4449C38.9727 84.2483 40.4346 85.7102 42.2379 85.7102Z" stroke="white" stroke-miterlimit="10"/>
<path d="M254.736 288.12C256.539 288.12 258.001 286.658 258.001 284.855C258.001 283.052 256.539 281.59 254.736 281.59C252.933 281.59 251.471 283.052 251.471 284.855C251.471 286.658 252.933 288.12 254.736 288.12Z" stroke="white" stroke-miterlimit="10"/>
<path d="M295.041 325.64C296.844 325.64 298.306 324.178 298.306 322.375C298.306 320.571 296.844 319.109 295.041 319.109C293.237 319.109 291.775 320.571 291.775 322.375C291.775 324.178 293.237 325.64 295.041 325.64Z" stroke="white" stroke-miterlimit="10"/>
<path d="M355.538 193.957C355.538 195.762 354.079 197.222 352.273 197.222C350.467 197.222 349.008 195.762 349.008 193.957C349.008 192.151 350.467 190.691 352.273 190.691C354.079 190.691 355.538 192.151 355.538 193.957Z" stroke="white" stroke-miterlimit="10"/>
<path d="M104.806 258.527C104.806 260.333 103.346 261.792 101.541 261.792C99.7349 261.792 98.2754 260.333 98.2754 258.527C98.2754 256.721 99.7349 255.262 101.541 255.262C103.346 255.262 104.806 256.721 104.806 258.527Z" stroke="white" stroke-miterlimit="10"/>
<path d="M100.363 328.413C102.166 328.413 103.628 326.951 103.628 325.148C103.628 323.345 102.166 321.883 100.363 321.883C98.5596 321.883 97.0977 323.345 97.0977 325.148C97.0977 326.951 98.5596 328.413 100.363 328.413Z" stroke="white" stroke-miterlimit="10"/>
<path d="M15.0524 159.253C16.8557 159.253 18.3176 157.791 18.3176 155.988C18.3176 154.185 16.8557 152.723 15.0524 152.723C13.249 152.723 11.7871 154.185 11.7871 155.988C11.7871 157.791 13.249 159.253 15.0524 159.253Z" stroke="white" stroke-miterlimit="10"/>
<path d="M195.623 61.7883C197.426 61.7883 198.888 60.3264 198.888 58.5231C198.888 56.7197 197.426 55.2578 195.623 55.2578C193.819 55.2578 192.357 56.7197 192.357 58.5231C192.357 60.3264 193.819 61.7883 195.623 61.7883Z" stroke="white" stroke-miterlimit="10"/>
<path d="M257.854 43.3781H255.446V40.9704C255.446 40.5829 255.133 40.2695 254.745 40.2695C254.357 40.2695 254.044 40.5829 254.044 40.9704V43.3781H251.636C251.249 43.3781 250.936 43.6915 250.936 44.079C250.936 44.4665 251.249 44.7799 251.636 44.7799H254.044V47.1876C254.044 47.5751 254.357 47.8885 254.745 47.8885C255.133 47.8885 255.446 47.5751 255.446 47.1876V44.7799H257.854C258.241 44.7799 258.554 44.4665 258.554 44.079C258.554 43.6915 258.241 43.3781 257.854 43.3781Z" fill="white"/>
<path d="M154.809 25.2688H152.401V22.861C152.401 22.4735 152.088 22.1602 151.7 22.1602C151.313 22.1602 150.999 22.4735 150.999 22.861V25.2688H148.591C148.204 25.2688 147.891 25.5821 147.891 25.9696C147.891 26.3572 148.204 26.6705 148.591 26.6705H150.999V29.0782C150.999 29.4658 151.313 29.7791 151.7 29.7791C152.088 29.7791 152.401 29.4658 152.401 29.0782V26.6705H154.809C155.196 26.6705 155.51 26.3572 155.51 25.9696C155.51 25.5821 155.196 25.2688 154.809 25.2688Z" fill="white"/>
<path d="M77.422 159.097H75.0143V156.689C75.0143 156.302 74.7009 155.988 74.3134 155.988C73.9258 155.988 73.6125 156.302 73.6125 156.689V159.097H71.2048C70.8172 159.097 70.5039 159.41 70.5039 159.798C70.5039 160.185 70.8172 160.499 71.2048 160.499H73.6125V162.906C73.6125 163.294 73.9258 163.607 74.3134 163.607C74.7009 163.607 75.0143 163.294 75.0143 162.906V160.499H77.422C77.8095 160.499 78.1229 160.185 78.1229 159.798C78.1229 159.41 77.8095 159.097 77.422 159.097Z" fill="white"/>
<path d="M50.3204 287.421H47.9127V285.013C47.9127 284.626 47.5994 284.312 47.2118 284.312C46.8243 284.312 46.5109 284.626 46.5109 285.013V287.421H44.1032C43.7157 287.421 43.4023 287.734 43.4023 288.122C43.4023 288.51 43.7157 288.823 44.1032 288.823H46.5109V291.231C46.5109 291.618 46.8243 291.931 47.2118 291.931C47.5994 291.931 47.9127 291.618 47.9127 291.231V288.823H50.3204C50.708 288.823 51.0213 288.51 51.0213 288.122C51.0213 287.734 50.708 287.421 50.3204 287.421Z" fill="white"/>
<path d="M134.813 280.554H132.405V278.146C132.405 277.759 132.092 277.445 131.704 277.445C131.316 277.445 131.003 277.759 131.003 278.146V280.554H128.595C128.208 280.554 127.895 280.867 127.895 281.255C127.895 281.642 128.208 281.956 128.595 281.956H131.003V284.363C131.003 284.751 131.316 285.064 131.704 285.064C132.092 285.064 132.405 284.751 132.405 284.363V281.956H134.813C135.2 281.956 135.513 281.642 135.513 281.255C135.513 280.867 135.2 280.554 134.813 280.554Z" fill="white"/>
<path d="M186.209 330.441H183.801V328.033C183.801 327.645 183.488 327.332 183.1 327.332C182.713 327.332 182.4 327.645 182.4 328.033V330.441H179.992C179.604 330.441 179.291 330.754 179.291 331.142C179.291 331.529 179.604 331.842 179.992 331.842H182.4V334.25C182.4 334.638 182.713 334.951 183.1 334.951C183.488 334.951 183.801 334.638 183.801 334.25V331.842H186.209C186.597 331.842 186.91 331.529 186.91 331.142C186.91 330.754 186.597 330.441 186.209 330.441Z" fill="white"/>
<path d="M293.121 288.948H290.713V286.541C290.713 286.153 290.4 285.84 290.013 285.84C289.625 285.84 289.312 286.153 289.312 286.541V288.948H286.904C286.516 288.948 286.203 289.262 286.203 289.649C286.203 290.037 286.516 290.35 286.904 290.35H289.312V292.758C289.312 293.145 289.625 293.459 290.013 293.459C290.4 293.459 290.713 293.145 290.713 292.758V290.35H293.121C293.509 290.35 293.822 290.037 293.822 289.649C293.822 289.262 293.509 288.948 293.121 288.948Z" fill="white"/>
<path d="M341.91 159.097H339.503V156.689C339.503 156.302 339.189 155.988 338.802 155.988C338.414 155.988 338.101 156.302 338.101 156.689V159.097H335.693C335.306 159.097 334.992 159.41 334.992 159.798C334.992 160.185 335.306 160.499 335.693 160.499H338.101V162.906C338.101 163.294 338.414 163.607 338.802 163.607C339.189 163.607 339.503 163.294 339.503 162.906V160.499H341.91C342.298 160.499 342.611 160.185 342.611 159.798C342.611 159.41 342.298 159.097 341.91 159.097Z" fill="white"/>
<g clip-path="url(#clip0_1_2246)">
<path d="M54.1493 436.586L53.7879 425.732L56.7462 425.48L56.6926 434.784C56.6926 435.791 56.88 436.533 57.2415 436.997C57.6029 437.461 58.2186 437.699 59.062 437.699L58.7139 441.251C55.769 441.251 54.2564 439.7 54.1627 436.599L54.1493 436.586Z" fill="white"/>
<path d="M68.2846 439.966C68.0436 440.443 67.7357 440.828 67.3475 441.106C66.9594 441.384 66.5444 441.53 66.0893 441.53C65.3798 441.53 64.6302 441.331 63.827 440.92C63.0239 440.523 62.4349 440.046 62.0333 439.516C61.5648 440.165 61.0561 440.616 60.5341 440.854C59.9986 441.093 59.3963 441.225 58.7136 441.225C58.6466 441.225 58.5797 441.093 58.5262 440.841C58.4726 440.589 58.4325 440.218 58.4325 439.741C58.4325 438.986 58.4994 438.455 58.6333 438.137C58.7671 437.819 58.9144 437.674 59.0482 437.674C59.49 437.674 59.8514 437.621 60.1325 437.528C60.4136 437.435 60.6679 437.236 60.9089 436.958C61.1498 436.68 61.4175 436.256 61.712 435.699C62.4081 434.4 63.1443 433.473 63.9341 432.916C64.7105 432.359 65.6475 432.081 66.7318 432.081C67.3609 432.081 67.8428 432.24 68.1909 432.545C68.5255 432.85 68.7531 433.353 68.8602 434.056C69.0342 435.103 69.2082 435.871 69.409 436.375C69.5964 436.878 69.8507 437.21 70.1586 437.395C70.4665 437.581 70.9216 437.674 71.5106 437.674L71.1759 441.225C69.7035 441.225 68.7397 440.801 68.2846 439.953V439.966ZM64.9648 437.568C65.6074 437.846 66.1562 437.978 66.6381 437.978C66.7452 437.978 66.8255 437.912 66.8657 437.78C66.9058 437.647 66.9192 437.435 66.9192 437.143C66.9192 436.401 66.8657 435.884 66.7586 435.606C66.6515 435.328 66.4641 435.182 66.1964 435.182C65.5271 435.182 64.9916 435.301 64.59 435.527C64.1884 435.752 63.8404 436.136 63.5593 436.653C63.8538 436.998 64.3223 437.302 64.9515 437.581L64.9648 437.568Z" fill="white"/>
<path d="M87.0792 434.731C87.1595 435.566 87.1996 436.295 87.1996 436.891C87.1996 438.229 86.9051 439.29 86.3162 440.072C85.7272 440.853 84.9508 441.238 83.987 441.238C83.1571 441.238 82.4476 441.105 81.8854 440.827C81.3098 440.549 80.9082 440.204 80.6807 439.767C80.4397 440.231 80.0649 440.588 79.5696 440.853C79.0609 441.118 78.5121 441.238 77.9097 441.238C77.2003 441.238 76.6113 441.105 76.1294 440.84C75.6475 440.575 75.3396 440.191 75.1924 439.7C74.8711 440.231 74.3892 440.615 73.7601 440.867C73.1176 441.105 72.2609 441.238 71.1766 441.238C71.1097 441.238 71.0427 441.105 70.9892 440.853C70.9356 440.602 70.8955 440.231 70.8955 439.753C70.8955 438.998 70.9624 438.468 71.0963 438.15C71.2301 437.832 71.3774 437.686 71.5112 437.686C72.475 437.686 73.1845 437.554 73.653 437.275C74.1081 436.997 74.3491 436.546 74.3491 435.91V434.598L76.6515 434.426V435.857C76.6515 436.427 76.7719 436.878 77.0263 437.196C77.2672 437.527 77.6554 437.686 78.1641 437.686C78.646 437.686 79.0208 437.527 79.3019 437.222C79.583 436.917 79.7169 436.52 79.7169 436.003V434.784L82.0326 434.612V435.844C82.0326 436.44 82.2067 436.891 82.5681 437.209C82.9161 437.514 83.4382 437.673 84.1075 437.673C84.4421 437.673 84.6161 437.527 84.6161 437.249C84.6161 436.917 84.5626 436.374 84.4555 435.619C84.3484 434.863 84.2012 434.042 84.0405 433.154L86.8248 432.385C86.9319 433.101 87.0256 433.883 87.1059 434.718L87.0792 434.731ZM80.0515 429.629H83.3445V432.027H76.9593V429.629H80.0515ZM78.7665 428.661V426.289H81.5374V428.661H78.7665Z" fill="white"/>
<path d="M101.871 440.72C101.295 440.376 100.867 439.859 100.586 439.17C100.024 439.832 99.274 440.389 98.3236 440.853C97.3731 441.317 96.4361 441.542 95.5393 441.542C94.5755 441.542 93.8392 441.277 93.344 440.747C92.8487 440.217 92.6077 439.448 92.6077 438.441C92.6077 437.526 92.6211 436.745 92.6613 436.069L94.7227 435.976V436.665C94.7227 437.116 94.8298 437.447 95.0574 437.659C95.2849 437.871 95.633 437.977 96.1015 437.977C96.6905 437.977 97.3062 437.831 97.9487 437.553C98.5913 437.275 99.1401 436.917 99.622 436.466C99.1267 434.399 98.511 432.385 97.7747 430.45L100.331 429.23C100.519 429.787 100.706 430.41 100.88 431.112C101.054 431.815 101.242 432.544 101.416 433.299L101.737 434.651C101.938 435.472 102.152 436.095 102.393 436.533C102.62 436.97 102.915 437.261 103.25 437.434C103.584 437.606 104.026 437.685 104.588 437.685L104.254 441.237C103.25 441.237 102.46 441.065 101.884 440.72H101.871Z" fill="white"/>
<path d="M110.29 436.547C110.29 437.368 110.089 438.177 109.674 438.959C109.259 439.754 108.697 440.31 107.974 440.655C107.144 441.039 105.899 441.225 104.239 441.225C104.172 441.225 104.105 441.092 104.052 440.841C103.998 440.589 103.958 440.218 103.958 439.741C103.958 438.985 104.025 438.455 104.159 438.137C104.293 437.819 104.44 437.673 104.574 437.673C106.635 437.673 107.666 437.448 107.666 436.971C107.666 436.679 107.586 436.136 107.438 435.328C107.278 434.519 107.104 433.711 106.89 432.889L109.674 432.094C110.075 434.241 110.276 435.725 110.276 436.52L110.29 436.547ZM106.274 430.649V427.906H109.246V430.649H106.274Z" fill="white"/>
<path d="M116.367 440.719C116.18 441.62 115.805 442.415 115.256 443.118C114.694 443.807 113.931 444.416 112.94 444.92C111.455 445.662 109.42 446.272 106.836 446.749L105.873 443.82C109.005 443.277 111.16 442.68 112.311 442.044C113.476 441.395 114.065 440.706 114.065 439.95C114.065 439.526 113.985 438.811 113.811 437.79C113.637 436.783 113.396 435.71 113.115 434.596L115.845 433.722C116.086 434.954 116.287 435.829 116.474 436.346C116.648 436.862 116.876 437.22 117.17 437.406C117.452 437.591 117.907 437.684 118.509 437.684L118.148 441.236C117.358 441.236 116.769 441.063 116.394 440.719H116.367Z" fill="white"/>
<path d="M124.185 436.546C124.185 437.367 123.984 438.176 123.569 438.957C123.154 439.753 122.592 440.309 121.869 440.654C121.039 441.038 119.794 441.224 118.134 441.224C118.068 441.224 118.001 441.091 117.947 440.839C117.893 440.588 117.853 440.216 117.853 439.739C117.853 438.984 117.92 438.454 118.054 438.136C118.188 437.818 118.335 437.672 118.469 437.672C120.531 437.672 121.561 437.447 121.561 436.97C121.561 436.678 121.481 436.135 121.334 435.326C121.173 434.518 120.999 433.71 120.785 432.888L123.569 432.093C123.971 434.24 124.172 435.724 124.172 436.519L124.185 436.546ZM118.764 445.835V443.119H121.735V445.835H118.764Z" fill="white"/>
<path d="M142.524 432.675C142.163 432.675 141.748 432.847 141.279 433.205C140.811 433.563 140.409 433.96 140.075 434.424C139.74 434.888 139.566 435.246 139.566 435.511C139.566 435.855 139.874 436.081 140.516 436.187L142.993 436.611C144.425 436.836 145.134 437.618 145.134 438.956C145.134 439.95 144.894 440.878 144.412 441.726C143.93 442.574 143.247 443.29 142.364 443.86C141.547 444.416 140.556 444.84 139.378 445.132C138.2 445.423 137.036 445.569 135.858 445.569C131.802 445.569 129.781 443.926 129.781 440.653C129.781 439.102 130.156 437.088 130.919 434.61L133.127 435.219C132.645 436.968 132.404 438.307 132.404 439.235C132.404 441.09 133.756 442.018 136.46 442.018C137.638 442.018 138.682 441.912 139.579 441.686C140.49 441.461 141.186 441.222 141.694 440.944C142.203 440.666 142.444 440.441 142.444 440.282C142.444 440.083 142.123 439.937 141.48 439.844L139.512 439.526C138.615 439.38 137.96 439.076 137.531 438.625C137.103 438.174 136.902 437.552 136.902 436.783C136.902 435.763 137.237 434.676 137.893 433.536C138.549 432.396 139.365 431.429 140.329 430.66C141.293 429.892 142.176 429.494 142.966 429.494C143.528 429.494 144.037 429.666 144.505 430.011C144.96 430.356 145.362 430.859 145.697 431.522L143.769 433.404C143.301 432.913 142.886 432.675 142.524 432.675Z" fill="white"/>
<path d="M148.467 441.41L147.945 425.732L150.903 425.48L150.769 441.158L148.48 441.41H148.467Z" fill="white"/>
<path d="M162.441 440.72C161.866 440.376 161.437 439.859 161.156 439.17C160.594 439.832 159.845 440.389 158.894 440.853C157.944 441.317 157.007 441.542 156.11 441.542C155.146 441.542 154.41 441.277 153.915 440.747C153.419 440.217 153.178 439.448 153.178 438.441C153.178 437.526 153.192 436.745 153.232 436.069L155.293 435.976V436.665C155.293 437.116 155.4 437.447 155.628 437.659C155.855 437.871 156.204 437.977 156.672 437.977C157.261 437.977 157.877 437.831 158.519 437.553C159.162 437.275 159.711 436.917 160.193 436.466C159.697 434.399 159.082 432.385 158.345 430.45L160.902 429.23C161.089 429.787 161.277 430.41 161.451 431.112C161.625 431.815 161.812 432.544 161.986 433.299L162.308 434.651C162.508 435.472 162.723 436.095 162.963 436.533C163.191 436.97 163.486 437.261 163.82 437.434C164.155 437.606 164.597 437.685 165.159 437.685L164.824 441.237C163.82 441.237 163.03 441.065 162.455 440.72H162.441Z" fill="white"/>
<path d="M179.79 432.014C180.486 432.465 181.035 433.061 181.464 433.777C181.892 434.506 182.106 435.274 182.106 436.083C182.106 436.984 181.852 437.819 181.33 438.587C180.808 439.356 180.125 439.939 179.268 440.31C178.586 440.602 177.742 440.827 176.752 440.986C175.761 441.145 174.744 441.225 173.713 441.225C171.103 441.225 169.496 440.642 168.894 439.475C168.586 440.112 168.104 440.562 167.448 440.827C166.793 441.092 165.896 441.225 164.771 441.225C164.704 441.225 164.637 441.092 164.584 440.84C164.53 440.589 164.49 440.218 164.49 439.74C164.49 438.985 164.557 438.455 164.691 438.137C164.825 437.819 164.972 437.673 165.106 437.673C166.07 437.673 166.779 437.541 167.248 437.262C167.703 436.984 167.944 436.533 167.944 435.897V434.585L170.246 434.413V435.579C170.246 436.215 170.42 436.679 170.768 436.971C172.241 435.076 173.539 433.658 174.65 432.73C175.761 431.802 176.765 431.325 177.649 431.325C178.358 431.325 179.054 431.55 179.75 432.001L179.79 432.014ZM174.208 437.686C175.199 437.686 176.109 437.633 176.952 437.541C177.782 437.448 178.452 437.315 178.934 437.169C179.429 437.01 179.67 436.865 179.67 436.706C179.67 436.467 179.549 436.176 179.308 435.831C179.067 435.486 178.746 435.182 178.358 434.93C177.97 434.678 177.568 434.546 177.153 434.546C176.591 434.546 175.975 434.797 175.319 435.301C174.663 435.804 173.86 436.586 172.91 437.673C173.419 437.7 173.847 437.713 174.195 437.713L174.208 437.686Z" fill="white"/>
<path d="M190.231 430.57C189.923 431.073 189.749 431.511 189.736 431.895C189.816 431.868 189.963 431.855 190.164 431.855C190.686 431.855 191.101 432.027 191.422 432.359C191.73 432.69 191.891 433.127 191.891 433.644C191.891 434.267 191.69 434.784 191.289 435.195C190.887 435.606 190.392 435.804 189.803 435.804C189.174 435.804 188.665 435.579 188.29 435.129C187.915 434.678 187.715 434.095 187.715 433.366C187.715 432.385 187.942 431.418 188.411 430.477C188.866 429.536 189.522 428.688 190.365 427.959L191.463 429.125C190.954 429.576 190.539 430.053 190.231 430.556V430.57ZM191.289 437.699C191.69 438.097 191.891 438.587 191.891 439.17C191.891 439.754 191.69 440.231 191.289 440.628C190.887 441.026 190.392 441.238 189.803 441.238C189.214 441.238 188.732 441.039 188.33 440.628C187.929 440.217 187.728 439.74 187.728 439.17C187.728 438.601 187.929 438.11 188.33 437.713C188.732 437.302 189.227 437.103 189.803 437.103C190.378 437.103 190.887 437.302 191.289 437.699Z" fill="white"/>
<path d="M205.612 444.046C204.889 444.496 204.006 444.867 202.988 445.146C201.958 445.424 200.887 445.556 199.776 445.556C197.955 445.556 196.576 445.146 195.639 444.311C194.702 443.489 194.234 442.257 194.234 440.64C194.234 439.023 194.609 437.075 195.372 434.597L197.58 435.206C197.098 436.956 196.857 438.294 196.857 439.222C196.857 440.149 197.152 440.799 197.741 441.276C198.33 441.766 199.2 442.005 200.365 442.005C201.328 442.005 202.279 441.872 203.229 441.62C204.18 441.355 204.902 441.024 205.425 440.613C205.518 440.547 205.585 440.441 205.639 440.282C205.692 440.136 205.719 439.951 205.706 439.752L205.277 425.718L208.236 425.466L208.102 439.235C208.062 441.435 207.232 443.038 205.612 444.032V444.046Z" fill="white"/>
<path d="M210.993 436.586L210.631 425.732L213.59 425.48L213.536 434.784C213.536 435.791 213.723 436.533 214.085 436.997C214.446 437.461 215.062 437.699 215.905 437.699L215.557 441.251C212.612 441.251 211.1 439.7 211.006 436.599L210.993 436.586Z" fill="white"/>
<path d="M221.475 440.786C220.873 440.481 220.485 440.057 220.284 439.514C219.976 440.057 219.454 440.481 218.718 440.786C217.981 441.091 217.058 441.237 215.947 441.237H215.545C215.545 441.237 215.411 441.104 215.358 440.853C215.304 440.601 215.264 440.23 215.264 439.753C215.264 438.997 215.331 438.467 215.465 438.149C215.599 437.831 215.746 437.685 215.88 437.685H216.281C217.473 437.685 218.303 437.5 218.785 437.129C219.253 436.758 219.494 436.214 219.494 435.485V434.014L221.796 433.842V435.406C221.796 436.214 221.984 436.797 222.345 437.155C222.707 437.513 223.282 437.698 224.072 437.698L223.711 441.25C222.814 441.25 222.064 441.091 221.475 440.799V440.786ZM218.008 432.026V429.283H220.98V432.026H218.008Z" fill="white"/>
<path d="M245.741 440.96C245.299 440.775 244.965 440.443 244.71 439.966C244.135 440.417 243.546 440.682 242.943 440.788C242.087 440.934 240.494 441.04 238.151 441.119C235.809 441.199 233.52 441.238 231.298 441.238H223.253C223.253 441.238 223.119 441.106 223.065 440.854C223.012 440.602 222.971 440.231 222.971 439.754C222.971 438.999 223.038 438.469 223.172 438.151C223.306 437.833 223.453 437.687 223.587 437.687H231.699C238.057 437.687 242.047 437.594 243.639 437.408C243.693 437.408 243.747 437.382 243.773 437.329C243.813 437.276 243.827 437.196 243.827 437.09C243.827 436.799 243.72 436.481 243.492 436.15C243.265 435.818 242.943 435.527 242.502 435.301C242.06 435.076 241.524 434.957 240.909 434.957L235.728 434.997C233.827 435.036 232.061 435.05 230.414 435.05C229.089 435.05 228.031 434.957 227.228 434.758C226.438 434.572 225.849 434.254 225.488 433.844C225.127 433.433 224.953 432.876 224.953 432.187C224.953 431.379 225.22 430.637 225.742 429.934C226.278 429.245 227.041 428.662 228.058 428.211C228.687 427.907 230.762 427.045 234.269 425.64L234.872 428.251C232.114 429.232 229.852 430.067 228.085 430.756C227.549 430.994 227.282 431.22 227.282 431.432C227.282 431.67 227.536 431.843 228.031 431.949C228.527 432.055 229.437 432.108 230.775 432.108C232.502 432.108 234.336 432.094 236.277 432.055L241.391 432.015C242.341 432.015 243.184 432.214 243.934 432.624C244.684 433.035 245.246 433.592 245.661 434.294C246.076 434.997 246.276 435.765 246.276 436.6C246.276 436.958 246.223 437.289 246.143 437.607C246.705 437.66 247.2 437.687 247.628 437.687L247.267 441.238C246.678 441.238 246.169 441.146 245.728 440.96H245.741ZM226.572 427.27L226.117 425.919C227.416 425.15 229.544 424.103 232.516 422.765L232.877 424.302C229.557 425.76 227.456 426.754 226.572 427.284V427.27Z" fill="white"/>
<path d="M248.304 443.105H251.597V445.504H245.212V443.105H248.304ZM253.029 440.786C252.427 440.481 252.039 440.057 251.838 439.514C251.53 440.057 251.008 440.481 250.272 440.786C249.536 441.091 248.612 441.237 247.501 441.237H247.099C247.099 441.237 246.965 441.104 246.912 440.852C246.858 440.6 246.818 440.229 246.818 439.752C246.818 438.997 246.885 438.467 247.019 438.149C247.153 437.831 247.3 437.685 247.434 437.685H247.836C249.027 437.685 249.857 437.499 250.339 437.128C250.807 436.757 251.048 436.214 251.048 435.485V434.014L253.351 433.842V435.406C253.351 436.214 253.538 436.797 253.899 437.155C254.261 437.513 254.836 437.698 255.626 437.698L255.265 441.25C254.368 441.25 253.618 441.091 253.029 440.799V440.786Z" fill="white"/>
<path d="M271.194 434.731C271.274 435.566 271.314 436.295 271.314 436.892C271.314 438.23 271.02 439.29 270.431 440.072C269.842 440.854 269.065 441.238 268.102 441.238C267.272 441.238 266.562 441.106 266 440.827C265.424 440.549 265.023 440.205 264.795 439.767C264.554 440.231 264.18 440.589 263.684 440.854C263.176 441.119 262.627 441.238 262.024 441.238C261.315 441.238 260.726 441.106 260.244 440.841C259.762 440.576 259.454 440.191 259.307 439.701C258.986 440.231 258.504 440.615 257.875 440.867C257.232 441.106 256.375 441.238 255.291 441.238C255.224 441.238 255.157 441.106 255.104 440.854C255.05 440.602 255.01 440.231 255.01 439.754C255.01 438.999 255.077 438.469 255.211 438.151C255.345 437.832 255.492 437.687 255.626 437.687C256.59 437.687 257.299 437.554 257.768 437.276C258.223 436.998 258.464 436.547 258.464 435.911V434.599L260.766 434.427V435.858C260.766 436.428 260.887 436.878 261.141 437.196C261.382 437.528 261.77 437.687 262.279 437.687C262.761 437.687 263.135 437.528 263.416 437.223C263.698 436.918 263.831 436.52 263.831 436.004V434.784L266.147 434.612V435.845C266.147 436.441 266.321 436.892 266.683 437.21C267.031 437.514 267.553 437.673 268.222 437.673C268.557 437.673 268.731 437.528 268.731 437.249C268.731 436.918 268.677 436.375 268.57 435.619C268.463 434.864 268.316 434.042 268.155 433.154L270.939 432.386C271.047 433.101 271.14 433.883 271.221 434.718L271.194 434.731Z" fill="white"/>
</g>
<path d="M318.04 433.359C317.207 433.359 316.533 432.685 316.533 431.852V430.112C316.533 429.279 317.207 428.605 318.04 428.605C318.873 428.605 319.547 429.279 319.547 430.112V431.852C319.547 432.685 318.873 433.359 318.04 433.359Z" fill="white"/>
<path d="M281.507 440.101C280.673 440.101 280 439.428 280 438.594V436.854C280 436.021 280.673 435.348 281.507 435.348C282.34 435.348 283.013 436.021 283.013 436.854V438.594C283.013 439.428 282.34 440.101 281.507 440.101Z" fill="white"/>
<path d="M293.681 445.605C292.847 445.605 292.174 444.932 292.174 444.099V431.339C292.174 430.505 292.847 429.832 293.681 429.832C294.514 429.832 295.187 430.505 295.187 431.339V444.099C295.187 444.932 294.514 445.605 293.681 445.605Z" fill="white"/>
<path d="M299.774 447.707C298.941 447.707 298.268 447.033 298.268 446.2V422.507C298.268 421.673 298.941 421 299.774 421C300.608 421 301.281 421.673 301.281 422.507V446.2C301.281 447.033 300.608 447.707 299.774 447.707Z" fill="white"/>
<path d="M287.593 442.598C286.759 442.598 286.086 441.925 286.086 441.092V434.358C286.086 433.525 286.759 432.852 287.593 432.852C288.426 432.852 289.099 433.525 289.099 434.358V441.092C289.099 441.925 288.426 442.598 287.593 442.598Z" fill="white"/>
<path d="M305.86 438.872C305.027 438.872 304.354 438.199 304.354 437.365V424.612C304.354 423.779 305.027 423.105 305.86 423.105C306.694 423.105 307.367 423.779 307.367 424.612V437.372C307.367 438.205 306.694 438.879 305.86 438.879V438.872Z" fill="white"/>
<path d="M311.946 435.86C311.113 435.86 310.439 435.187 310.439 434.353V427.62C310.439 426.787 311.113 426.113 311.946 426.113C312.779 426.113 313.453 426.787 313.453 427.62V434.353C313.453 435.187 312.779 435.86 311.946 435.86Z" fill="white"/>
<defs>
<filter id="filter0_n_1_2246" x="2" y="2" width="366.6" height="366.6" filterUnits="userSpaceOnUse" color-interpolation-filters="sRGB">
<feFlood flood-opacity="0" result="BackgroundImageFix"/>
<feBlend mode="normal" in="SourceGraphic" in2="BackgroundImageFix" result="shape"/>
<feTurbulence type="fractalNoise" baseFrequency="2 2" stitchTiles="stitch" numOctaves="3" result="noise" seed="3439" />
<feColorMatrix in="noise" type="luminanceToAlpha" result="alphaNoise" />
<feComponentTransfer in="alphaNoise" result="coloredNoise1">
<feFuncA type="discrete" tableValues="1 1 1 1 1 1 1 1 1 1 1 1 1 1 1 1 1 1 1 1 1 1 1 1 1 1 1 1 1 1 1 1 1 1 1 1 1 1 1 1 1 1 1 1 1 1 1 1 1 1 1 0 0 0 0 0 0 0 0 0 0 0 0 0 0 0 0 0 0 0 0 0 0 0 0 0 0 0 0 0 0 0 0 0 0 0 0 0 0 0 0 0 0 0 0 0 0 0 0 0 "/>
</feComponentTransfer>
<feComposite operator="in" in2="shape" in="coloredNoise1" result="noise1Clipped" />
<feFlood flood-color="rgba(255, 255, 255, 0.25)" result="color1Flood" />
<feComposite operator="in" in2="noise1Clipped" in="color1Flood" result="color1" />
<feMerge result="effect1_noise_1_2246">
<feMergeNode in="shape" />
<feMergeNode in="color1" />
</feMerge>
</filter>
<filter id="filter1_n_1_2246" x="44" y="44" width="283" height="283" filterUnits="userSpaceOnUse" color-interpolation-filters="sRGB">
<feFlood flood-opacity="0" result="BackgroundImageFix"/>
<feBlend mode="normal" in="SourceGraphic" in2="BackgroundImageFix" result="shape"/>
<feTurbulence type="fractalNoise" baseFrequency="2 2" stitchTiles="stitch" numOctaves="3" result="noise" seed="3439" />
<feColorMatrix in="noise" type="luminanceToAlpha" result="alphaNoise" />
<feComponentTransfer in="alphaNoise" result="coloredNoise1">
<feFuncA type="discrete" tableValues="1 1 1 1 1 1 1 1 1 1 1 1 1 1 1 1 1 1 1 1 1 1 1 1 1 1 1 1 1 1 1 1 1 1 1 1 1 1 1 1 1 1 1 1 1 1 1 1 1 1 1 0 0 0 0 0 0 0 0 0 0 0 0 0 0 0 0 0 0 0 0 0 0 0 0 0 0 0 0 0 0 0 0 0 0 0 0 0 0 0 0 0 0 0 0 0 0 0 0 0 "/>
</feComponentTransfer>
<feComposite operator="in" in2="shape" in="coloredNoise1" result="noise1Clipped" />
<feFlood flood-color="rgba(255, 255, 255, 0.25)" result="color1Flood" />
<feComposite operator="in" in2="noise1Clipped" in="color1Flood" result="color1" />
<feMerge result="effect1_noise_1_2246">
<feMergeNode in="shape" />
<feMergeNode in="color1" />
</feMerge>
</filter>
<filter id="filter2_n_1_2246" x="84.0002" y="84.0002" width="201.77" height="201.77" filterUnits="userSpaceOnUse" color-interpolation-filters="sRGB">
<feFlood flood-opacity="0" result="BackgroundImageFix"/>
<feBlend mode="normal" in="SourceGraphic" in2="BackgroundImageFix" result="shape"/>
<feTurbulence type="fractalNoise" baseFrequency="2 2" stitchTiles="stitch" numOctaves="3" result="noise" seed="3439" />
<feColorMatrix in="noise" type="luminanceToAlpha" result="alphaNoise" />
<feComponentTransfer in="alphaNoise" result="coloredNoise1">
<feFuncA type="discrete" tableValues="1 1 1 1 1 1 1 1 1 1 1 1 1 1 1 1 1 1 1 1 1 1 1 1 1 1 1 1 1 1 1 1 1 1 1 1 1 1 1 1 1 1 1 1 1 1 1 1 1 1 1 0 0 0 0 0 0 0 0 0 0 0 0 0 0 0 0 0 0 0 0 0 0 0 0 0 0 0 0 0 0 0 0 0 0 0 0 0 0 0 0 0 0 0 0 0 0 0 0 0 "/>
</feComponentTransfer>
<feComposite operator="in" in2="shape" in="coloredNoise1" result="noise1Clipped" />
<feFlood flood-color="rgba(255, 255, 255, 0.25)" result="color1Flood" />
<feComposite operator="in" in2="noise1Clipped" in="color1Flood" result="color1" />
<feMerge result="effect1_noise_1_2246">
<feMergeNode in="shape" />
<feMergeNode in="color1" />
</feMerge>
</filter>
<clipPath id="clip0_1_2246">
<rect width="225" height="24" fill="white" transform="translate(50 422)"/>
</clipPath>
</defs>
</svg>
