<svg width="20" height="20" viewBox="0 0 20 20" fill="none" xmlns="http://www.w3.org/2000/svg">
<path d="M11.4583 4.79167H8.125M16.4583 6.04167V14.375C16.4583 17.7083 15.625 18.5417 12.2917 18.5417H7.29167C3.95833 18.5417 3.125 17.7083 3.125 14.375V6.04167C3.125 2.70833 3.95833 1.875 7.29167 1.875H12.2917C15.625 1.875 16.4583 2.70833 16.4583 6.04167Z" stroke="#78829D" stroke-width="1.5" stroke-linecap="round" stroke-linejoin="round"/>
<path d="M9.79142 16.1258C10.134 16.1258 10.4625 15.9897 10.7048 15.7475C10.947 15.5053 11.0831 15.1767 11.0831 14.8341C11.0831 14.4916 10.947 14.163 10.7048 13.9208C10.4625 13.6786 10.134 13.5425 9.79142 13.5425C9.44885 13.5425 9.12031 13.6786 8.87808 13.9208C8.63584 14.163 8.49976 14.4916 8.49976 14.8341C8.49976 15.1767 8.63584 15.5053 8.87808 15.7475C9.12031 15.9897 9.44885 16.1258 9.79142 16.1258Z" stroke="#78829D" stroke-width="1.5" stroke-linecap="round" stroke-linejoin="round"/>
</svg>
