<svg width="392" height="48" viewBox="0 0 392 48" fill="none" xmlns="http://www.w3.org/2000/svg">
<rect x="0.5" y="0.5" width="391" height="47" rx="11.5" fill="white"/>
<rect x="0.5" y="0.5" width="391" height="47" rx="11.5" stroke="#DBDFE9"/>
<path d="M371.667 20.6667H375.833M372.5 24H375.833M374.167 27.3333H375.833M374.167 31.5H365.833C362.5 31.5 361.667 30.6667 361.667 27.3333V20.6667C361.667 17.3333 362.5 16.5 365.833 16.5H374.167C377.5 16.5 378.333 17.3333 378.333 20.6667V27.3333C378.333 30.6667 377.5 31.5 374.167 31.5Z" stroke="#78829D" stroke-width="1.5" stroke-linecap="round" stroke-linejoin="round"/>
<path d="M370 27.6083C369.944 27.0234 369.685 26.4765 369.268 26.0625C368.851 25.6485 368.302 25.3935 367.717 25.3417C367.295 25.3 366.871 25.3 366.45 25.3417C365.865 25.395 365.317 25.6505 364.901 26.0642C364.484 26.4779 364.224 27.024 364.167 27.6083M367.083 23.4083C367.483 23.4083 367.867 23.2494 368.15 22.9665C368.433 22.6837 368.592 22.3 368.592 21.9C368.592 21.5 368.433 21.1163 368.15 20.8334C367.867 20.5506 367.483 20.3917 367.083 20.3917C366.683 20.3917 366.3 20.5506 366.017 20.8334C365.734 21.1163 365.575 21.5 365.575 21.9C365.575 22.3 365.734 22.6837 366.017 22.9665C366.3 23.2494 366.683 23.4083 367.083 23.4083Z" stroke="#78829D" stroke-width="1.5" stroke-linecap="round" stroke-linejoin="round"/>
</svg>
