<svg width="392" height="48" viewBox="0 0 392 48" fill="none" xmlns="http://www.w3.org/2000/svg">
<rect x="0.5" y="0.5" width="391" height="47" rx="11.5" fill="white"/>
<rect x="0.5" y="0.5" width="391" height="47" rx="11.5" stroke="#DBDFE9"/>
<g clip-path="url(#clip0_1_2236)">
<path d="M370.1 24.65C370.042 24.6417 369.967 24.6417 369.9 24.65C368.433 24.6 367.267 23.4 367.267 21.925C367.267 20.4167 368.483 19.1917 370 19.1917C371.508 19.1917 372.733 20.4167 372.733 21.925C372.725 23.4 371.567 24.6 370.1 24.65Z" stroke="#78829D" stroke-width="1.5" stroke-linecap="round" stroke-linejoin="round"/>
<path d="M375.617 30.1508C374.134 31.5091 372.167 32.3341 370 32.3341C367.834 32.3341 365.867 31.5091 364.384 30.1508C364.467 29.3674 364.967 28.6008 365.859 28.0008C368.142 26.4841 371.875 26.4841 374.142 28.0008C375.034 28.6008 375.534 29.3674 375.617 30.1508Z" stroke="#78829D" stroke-width="1.5" stroke-linecap="round" stroke-linejoin="round"/>
<path d="M370 32.3346C374.603 32.3346 378.334 28.6036 378.334 24.0013C378.334 19.3989 374.603 15.668 370 15.668C365.398 15.668 361.667 19.3989 361.667 24.0013C361.667 28.6036 365.398 32.3346 370 32.3346Z" stroke="#78829D" stroke-width="1.5" stroke-linecap="round" stroke-linejoin="round"/>
</g>
<defs>
<clipPath id="clip0_1_2236">
<rect width="20" height="20" fill="white" transform="translate(360 14)"/>
</clipPath>
</defs>
</svg>
